<svg id="Capa_1" data-name="Capa 1" xmlns="http://www.w3.org/2000/svg" viewBox="0 0 1417.32 1417.32"><defs><style>.cls-1{fill:#010101;}</style></defs><path class="cls-1" d="M431.66,1018.25c4.58-4.31,8.33-8,12.27-11.52q37.47-33.18,75-66.26c125.54,138.1,326.05,119.47,429,12.75L886,898,1088.3,885.8c4.09,66.93,8.11,132.78,12.36,202.44l-63-55.54C932.5,1133.57,808.26,1175,664.44,1149.78,572.18,1133.61,495.16,1088.28,431.66,1018.25Z"/><path class="cls-1" d="M534.71,792.58c-31.1,62.18-60.53,121-90.68,181.28l-181.32-90.5,79.22-26.79c-33.42-139.21-9.47-266,81.72-377.24C484.08,405.63,562.38,360,657.44,338.94c8,38.62,15.72,76.29,23.69,115-104.52,26.39-178.45,87.51-217.28,188.22-21.33,55.33-24.15,137.77-6.91,176Z"/><path class="cls-1" d="M1133.05,874.88l-111.44-37.27c27.83-96.38,16.14-186.06-42.46-267.47-39.54-54.91-92.7-91.23-159.77-110.77-5.57,26.47-11,52.09-17.2,81.71l-111.67-169L859.69,260.33c-5.91,29.48-11.11,55.44-16.46,82.16,138.85,41,236.56,126.75,286.7,262.62C1162.54,693.48,1162.07,783.26,1133.05,874.88Z"/></svg>