<svg id="Capa_1" data-name="Capa 1" xmlns="http://www.w3.org/2000/svg" viewBox="0 0 1417.32 1417.32"><defs><style>.cls-1{fill:#010101;}</style></defs><path class="cls-1" d="M1033.75,329.56c4.7,7.72,10.74,14.93,13.89,23.24,24.15,63.76,50.82,126.82,70.38,192,12.1,40.34,14,84.13-23.8,117.13-2.64,2.31-4.49,7-4.5,10.62q-.32,152-.08,303.92c0,1.3.65,2.59,1.22,4.75q6.06.28,12.14.59c13,.64,19.63,7.88,19.85,20.42q.57,32.06,0,64.12c-.25,13.35-7.38,20.18-20.85,21.25-3.69.3-7.43.12-11.15.12H324.08c-27.49,0-32.09-4.68-32.1-32.54v-40.43c0-28.86,2.73-31.79,33.47-33.66V966.7q0-144.3.15-288.59c0-8.48-2-14.34-8.76-20.19-16.24-14-23.61-32.66-24.89-54.1-1.82-30.52,2.44-59.43,14.07-88.24C327.72,461.83,346.7,407,367.34,352.8c3.17-8.3,9.18-15.52,13.88-23.24ZM621,981.08c0-52.7-.06-103.78,0-154.87,0-18.38,6.78-25.07,25.32-25.12q59.93-.18,119.85,0c21.81,0,27.67,6.06,27.68,28.41q0,68.28,0,136.57v15h255.64V683.56L987,656.8a77.26,77.26,0,0,1-53.32,21.53c-22.63.21-40.65-10.24-57.07-24.35-16.51,15.9-34.87,24.5-57,24.31-22-.19-39.88-9.68-55.52-24.54-16.48,15.48-34.64,24.49-56.83,24.58-22.58.09-40.63-10.15-56.82-24.52-16.41,16.1-34.81,24.58-57,24.48s-39.89-9.75-55.3-24c-42.53,32.65-72.68,32.47-110.1,2.75l-62.63,26.16V981.08Zm453-442.53c-.61-3.08-.73-4.95-1.35-6.63-19.19-51.74-38.69-103.37-57.42-155.28-3.12-8.64-8.55-8.06-15.09-8.06q-292.71,0-585.41-.16c-8.64,0-13.13,2.07-16.24,10.71-17.92,49.74-36.52,99.23-54.81,148.84-1.18,3.19-1.71,6.62-2.69,10.58Zm9.2,483.22H331.75v26.12h751.53Zm-422-181.33V980.89h92.43V840.44ZM331.63,578.52c-1.37,22-3.35,42.81,18.48,55.25,13.86,7.9,27.77,6.69,40.32-2.9,17.91-13.67,15.09-32.9,14.15-52.35Zm452.27.16c-1.3,22.43-2.63,43.17,19.33,55.4a35.11,35.11,0,0,0,40.31-3.61c17.23-14.15,15-32.91,13.37-51.79Zm-226.29-.13c-1.13,21.91-3,42.67,18.73,55.19,13.31,7.69,26.89,6.84,39.24-2,18.82-13.49,16.74-33.08,15.23-53.17Zm525.68.15h-72.67c-1.71,20.33-3.57,40,15.38,53.3,12.91,9,27,9.4,40.45.85C1086.79,619.87,1084.71,599.61,1083.29,578.7Zm-411.87-.17c-1.19,21-4.26,41.31,16.07,54.75a36.37,36.37,0,0,0,41.8-1.21c18.58-14,15.56-33.62,14.06-53.54Zm226,.2c-1.11,21.43-3.61,42,17.59,54.61,13.78,8.17,27.72,7.34,40.54-2C974,617.9,971,598.47,970,578.73Zm-379.89,0H445.15c-1.37,19.84-4.08,39.26,14.36,52.64,12.83,9.32,26.8,10.08,40.54,1.87C521.18,620.65,518.66,600.06,517.53,578.77Z"/><path class="cls-1" d="M491.76,940.47c-20.41,0-40.83.13-61.24,0-17-.14-24-6.73-24.14-23.24q-.3-46.62,0-93.26c.12-15.66,7.31-22.73,23.32-22.81q63.33-.32,126.66,0c15.66.1,22.66,7.45,22.76,23.4q.32,46.62,0,93.25c-.12,15.65-7.3,22.48-23.34,22.63C534.45,940.62,513.1,940.47,491.76,940.47ZM446.28,840.42v60H539v-60Z"/><path class="cls-1" d="M921.77,940.47c-20.41,0-40.83.11-61.24,0-17.83-.11-24.63-6.65-24.72-24.06q-.24-45.95,0-91.87c.11-16,7.08-23.27,22.78-23.37q63.33-.37,126.66,0c16,.08,23.19,7.18,23.31,22.84q.38,46.62,0,93.26c-.11,16-7,23-22.79,23.18C964.46,940.65,943.11,940.47,921.77,940.47ZM969,841.12h-93.5v59.56H969Z"/><path class="cls-1" d="M707.58,759.22H569.74a100.71,100.71,0,0,1-11.13-.2c-11.32-1.27-18-7.87-18.12-19.12s6.88-18,17.92-19.39c6.86-.86,13.9-.31,20.86-.31q132.27,0,264.54,0c4.17,0,8.41-.35,12.51.23,11,1.56,17.74,7.87,18.26,19.26.48,10.52-7.76,18.8-19.42,19.35-10.65.51-21.34.18-32,.19Z"/><path class="cls-1" d="M548.12,435.51c-10.18,0-20.37.23-30.55-.05-13.56-.38-22.14-8.36-21.89-19.86.23-10.92,8.6-18.81,21.31-19q31.25-.5,62.49,0c13.51.19,22.16,8.38,21.91,19.83-.24,10.9-8.63,18.64-21.33,19C569.43,435.77,558.77,435.5,548.12,435.51Z"/></svg>