<svg id="Capa_1" data-name="Capa 1" xmlns="http://www.w3.org/2000/svg" viewBox="0 0 1417.32 1417.32"><defs><style>.cls-1{fill:#010101;}</style></defs><path class="cls-1" d="M1383.7,642.87c-6.86,6.36-12.9,14-20.72,18.85-43.6,26.79-87.63,52.9-131.53,79.21-24,14.39-29.29,13.21-45.72-10-1-1.48-2.23-2.86-4.38-5.62l-112,57.9c43.19,26.33,64.67,61.19,45.78,109.75-14.23,36.59-44.54,51.4-84.17,50.69-11.81,37.68-38,58.43-78.16,61.07-1.33,5.5-2.31,10.38-3.68,15.14a77.49,77.49,0,0,1-76,56c-9-.15-13.3,2.14-17.61,10.45-20.16,38.83-68.57,51.18-106,27.4-27-17.14-53.46-35.11-84.19-55.36-7.93,9.37-15.93,19.22-24.37,28.69-37.45,42-97.7,24.4-112.56-19.75a14.11,14.11,0,0,0-2.22-3.22c-49.6,4.29-69.67-8.93-90.65-59.6-51.5-2.81-72.93-21.79-81.72-73-4.94-1.18-10.24-2.24-15.42-3.72-32.24-9.26-52.89-41.83-48.92-75,.73-6.08-1.88-14.19-5.86-18.92-12-14.21-25.4-27.21-39.6-42.08-5,8.41-9,15.37-13.18,22.22-8.09,13.24-19.22,16.12-32.45,8.06q-75.51-46-150.87-92.26c-15.24-9.37-17.66-19-8.44-34.5q111-186.65,222.34-373.14c9.25-15.52,19.45-18.42,34.29-9.5Q372,358.5,448.1,404.9c12.15,7.4,14.74,18,8.26,30.5-1.65,3.2-3.54,6.27-6,10.68,4.32.71,7.68,1.61,11.06,1.75,31.08,1.34,62.16,3,93.26,3.42,5.77.08,13.88-3.11,17.07-7.55,24.52-34.06,57.74-45.92,98.8-45.08,69.72,1.44,138.52,9.86,207.29,20.44,32.39,5,65.32,6.46,97.22,9.46,1.37-3.09,2.23-4.12,2-4.62-13-27.17-12.11-30.16,14.55-46.15q66.43-39.84,132.89-79.64c17.7-10.58,26.28-8.76,37.83,8.28Q1269.14,464.13,1375.84,622c2.78,4.11,5.24,8.44,7.86,12.67ZM695.33,1028.25c26.25,17.23,51.57,34.43,77.52,50.63,16,10,34.78,5.23,44.58-9.63,4.73-7.16,5-12.45-2.88-18.37-27-20.32-53.59-41.31-80.23-62.17-13.23-10.36-16.15-22.59-8.21-32.73,8.19-10.46,20.07-10.56,33.79,0,27.86,21.54,55.48,43.37,83.48,64.71,6.45,4.91,13.6,9.54,21.16,12.22,15.64,5.53,33.63-2.85,41.66-18.07,8.4-15.9,6.3-22.36-11.67-35.86Q838.61,937,782.7,895c-12.7-9.61-15-23.1-6.07-32.87,8.18-9,19.25-9,31.89.4,38.09,28.46,76.05,57.1,114.16,85.54,5.46,4.07,11.13,8.14,17.28,11,18.85,8.65,41.44-1.29,48.29-20.57,2.58-7.25,2.07-12.64-5.2-17.49-15.2-10.15-29.79-21.21-44.63-31.9q-65.1-46.89-130.2-93.81c-12.76-9.22-16.05-19.71-10-30.28,6.66-11.57,20-13.5,33.16-4.11,33.54,23.84,66.83,48,100.29,72,29.36,21,58.63,42.17,88.34,62.67,13.31,9.18,27.8,8.34,41.38,0,13.77-8.45,19.23-21.37,18.16-37.31s-11-25.25-23.2-33.48Q904,722.05,751.67,619.2c-29.45-19.86-58.91-39.7-88.88-59.9-23.81,25.11-45.62,50.51-70.08,73.06-16.55,15.25-35.47,29.3-55.71,38.88-37.18,17.59-74.77,14.6-109.41-9-17.51-12-18.63-23.5-4.91-39.9q48.85-58.38,97.75-116.71c3.05-3.65,5.78-7.57,10-13.18-34.85-1.52-67.15-3.26-99.47-3.9-3.9-.08-9.22,5-11.67,9-21.62,35.49-42.75,71.29-64,107C325.66,654.3,296,704.08,266,754.44l24.82,26.22,25.75,27.28c11.48-12.22,21.2-23.12,31.5-33.44,39.56-39.61,89.71-32.58,117.17,16.2.41.72,1.4,1.1,2.14,1.62,60.41-22.53,98.45.4,108.65,65,.48,3,5.17,6.7,8.6,7.7,18.85,5.55,34.51,15.68,43.55,33.1,5.95,11.48,8.89,24.52,13.35,37.35C683.64,942.72,710.6,978.7,695.33,1028.25ZM467,634.35c.46,1.23.91,2.46,1.37,3.68,13,0,26.38,2,38.92-.43,22.67-4.31,40.75-17.94,56.48-34.38,25.92-27.06,51.54-54.42,77.42-81.53,12.29-12.87,19.69-13.54,34.76-3.78,4.6,3,9.12,6.1,13.66,9.16Q854.38,638.28,1019,749.63c7.68,5.21,13.45,6.25,22.12,1.56,35.34-19.11,71.22-37.23,106.86-55.79,3-1.58,5.81-3.71,9.06-5.81-1.63-2.86-2.61-4.88-3.86-6.72-46.33-68.47-92.53-137-139.36-205.13-3.06-4.45-10.78-7.36-16.64-7.95q-81.75-8.27-163.62-15.34-86-7.45-172-14c-22.62-1.7-39.82,7.51-54.24,25.75-28.61,36.18-59,71-88.59,106.36ZM83,702.7l121.32,73.74C273.29,660.74,341.42,546.36,410.13,431L289,357.09C220.4,472.14,152.21,586.59,83,702.7Zm1249.41-70.84L1135.08,340.3,1018.9,410.19l197.4,291.47ZM431,961.81c3.21-1.73,11-4,16.24-9,26.24-25.34,51.93-51.25,77.54-77.23,12.1-12.29,12.15-30.15.83-41.75s-29.21-12.54-41.72-.31c-27.07,26.46-53.57,53.5-80,80.59-8.57,8.77-9.16,19.73-4.46,30.53C404.45,956.14,413.93,961.71,431,961.81Zm165.84-22.48c-.2-16.77-5.52-26.39-17.08-31.55-11.92-5.31-23.3-3.82-32.82,5.56-19.5,19.23-39,38.49-58.15,58-14.09,14.34-14.64,31.13-2,43.52s29.88,12,43.89-1.81c19.18-18.89,38.19-38,56.62-57.59C592.25,950.18,594.91,942.69,596.84,939.33ZM428.62,822.86c.28-15.54-4.93-24.07-15.26-29.15-11.1-5.46-21.52-3.37-30.2,5-15.08,14.53-30.05,29.2-44.45,44.39C328,854.39,328.59,871,339,881.15c10.93,10.7,25.85,10.7,37.81-.78,14.78-14.18,29.34-28.62,43.38-43.53C424.59,832.17,427,825.63,428.62,822.86ZM661,999.19c-5.29-6.23-9.85-14.14-16.63-18.91-8.31-5.85-17.63-3.21-24.89,3.91-15,14.7-29.89,29.44-44.52,44.46-10.36,10.63-10.94,23.28-2.21,32.92,8.93,9.85,23.58,10.64,34.17.51,15.8-15.12,31-30.9,46-46.82C656.09,1011.85,657.35,1006.6,661,999.19Z"/></svg>