<svg id="Capa_1" data-name="Capa 1" xmlns="http://www.w3.org/2000/svg" viewBox="0 0 1417.32 1417.32"><defs><style>.cls-1{fill:#010101;}</style></defs><path class="cls-1" d="M869.31,880.47c-25.36,1.84-50.78,3.15-76.06,5.81-8.47.89-17,4.29-24.79,8.14-28.16,14-39.69,45.74-26.88,74.42,5.25,11.77,12.79,22.5,18.41,34.12,5.51,11.39,10.89,23,14.51,35.1,3.83,12.74.47,25.29-6.2,36.71-18.25,31.19-46.26,46.8-81.53,50.17-39.2,3.75-76.37-5.54-112.64-19.1-58.16-21.73-111.41-52.26-158.26-93-50.61-44-83.69-100-103.33-163.51-36.07-116.65-26.17-229.94,30.95-337.94C387.61,428,454.42,367.52,541.3,331.12,680.49,272.8,817.57,277.21,948,355.89c95.49,57.63,152.93,144.12,173.4,253.93,10.54,56.56,3.4,111.24-26.45,161.46-30.44,51.24-76.39,82.66-132.09,101.27-22.41,7.49-45.53,9.32-68.89,9.63-8.16.11-16.33,0-24.49,0Zm30.36-252.56a66.79,66.79,0,0,0,133.58,1c.32-37-29.93-67.59-66.92-67.57C929.8,561.38,899.83,591.3,899.67,627.91ZM660.13,452.77a66.92,66.92,0,0,0-66.45-67.32c-36.55-.19-66.81,29.65-67,66.11a66.91,66.91,0,0,0,66.73,67.64C629.81,519.32,660,489.27,660.13,452.77ZM501.36,613.51A66.81,66.81,0,0,0,434.76,547c-36.94,0-67.07,30.13-66.89,66.86a66.75,66.75,0,1,0,133.49-.37Zm338.7-100.88a66.74,66.74,0,1,0-66.45-67.32C773.17,482,803,512.3,840.06,512.63Z"/></svg>