<svg id="Capa_1" data-name="Capa 1" xmlns="http://www.w3.org/2000/svg" viewBox="0 0 1417.32 1417.32"><defs><style>.cls-1{fill:#010101;}</style></defs><path class="cls-1" d="M1325.13,586.48c-35,16.82-67.56,32.81-100.47,48.12-7.79,3.62-10.85,7.76-10.81,16.68.4,78.05.16,156.11.41,234.16,0,4.26,1.34,9.91,4.22,12.54,21.59,19.73,21.47,35.23-2.31,54.78l44.77,109.31H1148.08l44.48-108.21c-5-5.76-10.84-10.69-14.36-16.94-7-12.5-2.91-26.25,8.69-36.41,3.52-3.08,7.82-7.91,7.84-12,.4-78,.22-156.1.12-234.16,0-.81-.53-1.63-1.35-4-3.93,1.64-7.85,3.07-11.6,4.87Q950.26,766.59,718.49,877.68c-5.35,2.56-13.91,3.13-19.08.66Q399.92,735.15,100.85,591.1c-2.36-1.13-4.68-2.33-8.66-4.33,3.69-2.26,6.22-4.12,9-5.46Q399.76,437.73,698.26,294.05c7.66-3.69,13.51-3.09,20.77.41q298.53,143.67,597.21,287C1318.55,582.59,1320.73,584,1325.13,586.48Z"/><path class="cls-1" d="M363.75,744.87c33.87,16.27,65,31.2,96.07,46.15C539.59,829.34,619.46,867.45,699,906.28c8.84,4.32,14.82,1.48,21.87-1.91q159.3-76.61,318.62-153.17c3.47-1.67,7-3.09,13.14-5.74v15.31c0,57-1.21,114,.39,171,1.24,44.08-16.45,77.84-48.69,105.7-40.45,35-88.33,55.29-139.36,68-123.09,30.72-245,27.74-364.73-16.76-39-14.49-74.56-35.06-103.25-65.93-22.1-23.77-33.79-51.39-33.41-84.46.67-58.74.19-117.49.19-176.23Z"/></svg>